<svg width="18" height="16" viewBox="0 0 18 16" fill="none" xmlns="http://www.w3.org/2000/svg">
<path fill-rule="evenodd" clip-rule="evenodd" d="M13.7102 16V10.3754C13.7102 8.90312 13.1017 7.89806 11.7637 7.89806C10.7403 7.89806 10.1711 8.57629 9.90621 9.22994C9.80687 9.46456 9.82239 9.79138 9.82239 10.1182V16H5.96877C5.96877 16 6.01844 6.0365 5.96877 5.13082H9.82239V6.83665C10.05 6.0908 11.2815 5.02632 13.2466 5.02632C15.6846 5.02632 17.6 6.58974 17.6 9.95633V16H13.7102ZM2.04685 3.77127C0.80508 3.77127 0 2.94039 0 1.88717C0 0.813472 0.828881 0 2.09548 0C3.36105 0 4.13923 0.811424 4.16406 1.8841C4.16406 2.93731 3.36105 3.77127 2.07168 3.77127H2.04685ZM3.87432 5.13082V16H0.443932V5.13082H3.87432Z" fill="#2867B2"/>
</svg>
